<?xml version="1.0" encoding="utf-8"?>
<!-- Generator: Adobe Illustrator 16.0.0, SVG Export Plug-In . SVG Version: 6.00 Build 0)  -->
<!DOCTYPE svg PUBLIC "-//W3C//DTD SVG 1.1//EN" "http://www.w3.org/Graphics/SVG/1.1/DTD/svg11.dtd">
<svg version="1.1" id="Layer_1" xmlns="http://www.w3.org/2000/svg" xmlns:xlink="http://www.w3.org/1999/xlink" x="0px" y="0px"
	 width="960px" height="560px" viewBox="0 0 960 560" enable-background="new 0 0 960 560" xml:space="preserve">
<g id="Certificate-file">
	<path fill="#FFFFFF" d="M673.442,128.775c-0.047-0.835-0.209-1.642-0.489-2.432c-0.09-0.25-0.15-0.497-0.261-0.736
		c-0.421-0.916-0.954-1.784-1.691-2.524c0,0-29.967-30.096-59.969-60.165c-14.996-15.04-30.01-30.062-41.289-41.324
		c-8.34-8.322-13.834-13.808-17.705-17.217c-0.061-0.086-0.119-0.163-0.179-0.249c-0.009-0.017-0.018-0.025-0.026-0.042
		l-0.068,0.051c-5.438-4.738-7.587-5.253-10.044-3.768L313.567,0.377c-14.945,0-27.105,12.168-27.105,27.122v442.448
		c0,7.579,2.948,14.705,8.332,20.097c5.297,5.272,12.612,8.298,20.063,8.298h115.075c4.836,0,8.75-3.914,8.75-8.75
		c0-4.837-3.914-8.75-8.75-8.75H314.856c-2.862,0-5.673-1.171-7.699-3.179c-2.033-2.034-3.195-4.846-3.195-7.716V27.499
		c0-5.306,4.307-9.622,9.605-9.622l222.797-0.008c0.33,19.97-0.043,75.318-0.425,111.289c-0.025,2.341,0.889,4.588,2.529,6.247
		c1.641,1.666,3.888,2.597,6.221,2.597h111.349v333.372c0,2.495-1.008,4.93-2.777,6.699c-1.786,1.786-4.161,2.769-6.69,2.769h-3.981
		c-4.836,0-8.75,3.913-8.75,8.75c0,4.836,3.914,8.75,8.75,8.75h3.981c7.212,0,13.988-2.812,19.073-7.904
		c5.015-5.017,7.895-11.963,7.895-19.063V129.252C673.538,129.083,673.451,128.942,673.442,128.775z M553.534,120.502
		c0.47-46.057,0.614-73.427,0.479-89.884c20.473,20.422,58.011,58.054,89.722,89.884H553.534z"/>
	<path fill="#FFFFFF" d="M606.264,432.503c-0.324-1.113-0.869-2.101-1.544-2.961c12.649-15.173,20.275-34.683,20.275-55.982
		c0-48.324-39.176-87.5-87.5-87.5c-48.325,0-87.5,39.176-87.5,87.5c0,22.494,8.561,42.94,22.509,58.441l-29.533,101.246
		c-0.966,3.308,0.103,6.879,2.727,9.117c2.623,2.23,6.306,2.7,9.425,1.239l29.762-14.142l18.705,27.121
		c1.648,2.394,4.357,3.786,7.203,3.786c0.495,0,0.991-0.043,1.486-0.128c3.367-0.581,6.084-3.06,6.964-6.358l20.078-74.912
		l20.075,74.912c0.88,3.29,3.589,5.769,6.946,6.358c0.505,0.085,1.009,0.128,1.504,0.128c2.837,0,5.529-1.376,7.187-3.76
		l18.757-26.984l29.745,13.996c3.109,1.452,6.784,0.965,9.415-1.273c2.616-2.23,3.676-5.793,2.709-9.101L606.264,432.503z
		 M537.495,302.727c39.058,0,70.833,31.775,70.833,70.833c0,39.059-31.775,70.834-70.833,70.834
		c-39.059,0-70.834-31.775-70.834-70.834C466.661,334.502,498.437,302.727,537.495,302.727z M507.245,531.06l-12.185-17.662
		c-2.443-3.537-7.084-4.794-10.954-2.939l-18.876,8.964l21.736-74.507c11.378,8.072,24.751,13.468,39.255,15.338L507.245,531.06z
		 M594.55,510.638c-3.871-1.82-8.478-0.573-10.912,2.931l-12.22,17.577l-19.142-71.428c14.429-2.461,27.63-8.429,38.729-17.032
		l22.42,76.839L594.55,510.638z"/>
	<path fill="#FFFFFF" d="M537.495,417.31c24.162,0,43.75-19.587,43.75-43.75c0-24.162-19.588-43.75-43.75-43.75
		s-43.75,19.588-43.75,43.75C493.745,397.723,513.333,417.31,537.495,417.31z M537.495,347.31c14.474,0,26.25,11.775,26.25,26.25
		c0,14.476-11.776,26.25-26.25,26.25c-14.476,0-26.25-11.774-26.25-26.25C511.245,359.085,523.02,347.31,537.495,347.31z"/>
</g>
</svg>
