<?xml version="1.0" encoding="utf-8"?>
<!-- Generator: Adobe Illustrator 16.0.0, SVG Export Plug-In . SVG Version: 6.00 Build 0)  -->
<!DOCTYPE svg PUBLIC "-//W3C//DTD SVG 1.1//EN" "http://www.w3.org/Graphics/SVG/1.1/DTD/svg11.dtd">
<svg version="1.1" id="Capa_1" xmlns="http://www.w3.org/2000/svg" xmlns:xlink="http://www.w3.org/1999/xlink" x="0px" y="0px"
	 width="960px" height="560px" viewBox="0 0 960 560" enable-background="new 0 0 960 560" xml:space="preserve">
<g>
	<path fill="#FFFFFF" d="M293.333,237.673h121.333c5.162,0,9.333-4.181,9.333-9.333c0-5.152-4.172-9.333-9.333-9.333H293.333
		c-5.162,0-9.333,4.181-9.333,9.333C284,233.492,288.172,237.673,293.333,237.673z"/>
	<path fill="#FFFFFF" d="M536,275.007H293.333c-5.162,0-9.333,4.181-9.333,9.333c0,5.152,4.172,9.334,9.333,9.334H536
		c5.161,0,9.333-4.182,9.333-9.334C545.333,279.188,541.161,275.007,536,275.007z"/>
	<path fill="#FFFFFF" d="M536,331.007H293.333c-5.162,0-9.333,4.182-9.333,9.333c0,5.152,4.172,9.333,9.333,9.333H536
		c5.161,0,9.333-4.181,9.333-9.333C545.333,335.188,541.161,331.007,536,331.007z"/>
	<path fill="#FFFFFF" d="M704.672,23.66l-318.659-0.653c-30.52,0-55.347,24.827-55.347,55.347v47.824l-75.32,0.159
		c-30.52,0-55.347,24.827-55.347,55.347v197.316c0,30.52,24.827,55.337,55.347,55.337H312v93.333c0,3.855,2.371,7.317,5.973,8.708
		c1.092,0.42,2.231,0.626,3.36,0.626c2.576,0,5.105-1.073,6.907-3.053l90.57-99.633l155.176-0.635
		c30.521,0,55.347-24.826,55.347-55.337v-1.055l49.094,54.002c1.801,1.979,4.33,3.053,6.906,3.053c1.13,0,2.269-0.206,3.36-0.626
		c3.603-1.391,5.974-4.854,5.974-8.708v-93.333h9.986c30.52,0,55.347-24.827,55.347-55.337V79.007
		C760,48.496,735.183,23.669,704.672,23.66z M610.667,378.336c0,20.226-16.455,36.671-36.718,36.671l-159.32,0.653
		c-2.613,0.009-5.115,1.12-6.87,3.052l-77.093,84.813v-78.531c0-5.151-4.172-9.333-9.333-9.333h-65.987
		c-20.226,0-36.68-16.455-36.68-36.671V181.673c0-20.225,16.455-36.68,36.699-36.68L340,144.816l0,0c0.009,0,0.009,0,0.019,0
		l233.968-0.485c20.226,0,36.681,16.455,36.681,36.68v172.116V378.336z M741.333,276.323c0,20.225-16.454,36.67-36.68,36.67h-19.32
		c-5.161,0-9.333,4.182-9.333,9.333v78.531l-46.667-51.333V181.02c0-30.52-24.826-55.347-55.365-55.347l-224.634,0.458V78.344
		c0-20.225,16.455-36.68,36.661-36.68l318.649,0.653c0.01,0,0.01,0,0.02,0c20.225,0,36.68,16.455,36.68,36.68v197.326H741.333z"/>
</g>
</svg>
