<?xml version="1.0" encoding="utf-8"?>
<!-- Generator: Adobe Illustrator 16.0.0, SVG Export Plug-In . SVG Version: 6.00 Build 0)  -->
<!DOCTYPE svg PUBLIC "-//W3C//DTD SVG 1.1//EN" "http://www.w3.org/Graphics/SVG/1.1/DTD/svg11.dtd">
<svg version="1.1" id="Capa_1" xmlns="http://www.w3.org/2000/svg" xmlns:xlink="http://www.w3.org/1999/xlink" x="0px" y="0px"
	 width="960px" height="560px" viewBox="0 0 960 560" enable-background="new 0 0 960 560" xml:space="preserve">
<g>
	<path fill="#FFFFFF" d="M730.19,544.173l-55.866-58.439c16.342-17.951,26.394-41.725,26.394-67.855
		c0-55.717-45.327-101.044-101.044-101.044S498.63,362.161,498.63,417.878c0,55.716,45.327,101.044,101.044,101.044
		c22.847,0,43.877-7.713,60.826-20.554l56.166,58.749c1.835,1.919,4.296,2.893,6.767,2.893c2.331,0,4.652-0.861,6.468-2.593
		C733.635,553.832,733.766,547.907,730.19,544.173z M517.349,417.868c0-45.393,36.932-82.325,82.325-82.325
		c45.393,0,82.325,36.933,82.325,82.325c0,45.394-36.933,82.325-82.325,82.325C554.28,500.193,517.349,463.262,517.349,417.868z"/>
	<path fill="#FFFFFF" d="M291.16,168.469h121.672c5.176,0,9.359-4.184,9.359-9.359s-4.183-9.359-9.359-9.359H291.16
		c-5.175,0-9.359,4.184-9.359,9.359S285.994,168.469,291.16,168.469z"/>
	<path fill="#FFFFFF" d="M291.16,430.531c-5.175,0-9.359,4.184-9.359,9.359s4.184,9.359,9.359,9.359h132.595
		c5.176,0,9.359-4.184,9.359-9.359s-4.184-9.359-9.359-9.359H291.16z"/>
	<path fill="#FFFFFF" d="M571.942,215.266c0-5.176-4.184-9.359-9.359-9.359H291.16c-5.175,0-9.359,4.184-9.359,9.359
		s4.184,9.359,9.359,9.359h271.423C567.758,224.625,571.942,220.441,571.942,215.266z"/>
	<path fill="#FFFFFF" d="M479.911,318.219H291.16c-5.175,0-9.359,4.184-9.359,9.359s4.184,9.359,9.359,9.359h188.751
		c5.176,0,9.359-4.184,9.359-9.359S485.087,318.219,479.911,318.219z"/>
	<path fill="#FFFFFF" d="M461.192,383.734c0-5.176-4.184-9.359-9.359-9.359H291.16c-5.175,0-9.359,4.184-9.359,9.359
		s4.184,9.359,9.359,9.359h160.673C457.009,393.094,461.192,388.91,461.192,383.734z"/>
	<path fill="#FFFFFF" d="M291.16,262.063c-5.175,0-9.359,4.184-9.359,9.359c0,5.176,4.184,9.359,9.359,9.359h131.031
		c5.176,0,9.359-4.184,9.359-9.359c0-5.175-4.184-9.359-9.359-9.359H291.16z"/>
	<path fill="#FFFFFF" d="M571.942,271.422c0-5.175-4.184-9.359-9.359-9.359h-65.517c-5.175,0-9.359,4.184-9.359,9.359
		c0,5.176,4.185,9.359,9.359,9.359h65.517C567.758,280.781,571.942,276.598,571.942,271.422z"/>
	<path fill="#FFFFFF" d="M452.956,264.777c-1.694,1.769-2.714,4.203-2.714,6.645c0,2.434,1.02,4.867,2.808,6.646
		c1.685,1.769,4.108,2.714,6.552,2.714c2.433,0,4.866-0.945,6.645-2.714c1.77-1.778,2.715-4.212,2.715-6.646
		c0-2.442-0.945-4.876-2.715-6.645C462.783,261.314,456.513,261.314,452.956,264.777z"/>
	<path fill="#FFFFFF" d="M470.552,524.125H245.926V74.875h65.516v18.719c0,5.176,4.184,9.359,9.359,9.359h215.266
		c5.176,0,9.359-4.184,9.359-9.359V74.875h65.516v187.188c0,5.176,4.184,9.359,9.359,9.359s9.359-4.184,9.359-9.359V65.516
		c0-5.176-4.184-9.359-9.359-9.359h-74.875V37.438c0-5.176-4.184-9.359-9.359-9.359h-56.156V9.359c0-5.176-4.184-9.359-9.359-9.359
		h-84.234c-5.176,0-9.359,4.184-9.359,9.359v18.719h-56.156c-5.176,0-9.359,4.184-9.359,9.359v18.719h-74.875
		c-5.175,0-9.359,4.184-9.359,9.359v467.969c0,5.176,4.184,9.36,9.359,9.36h233.985c5.176,0,9.359-4.185,9.359-9.36
		C479.911,528.31,475.728,524.125,470.552,524.125z M395.677,18.719h65.516v18.719v18.719h-65.516V37.438V18.719z M330.161,46.797
		h46.797v18.719c0,5.176,4.184,9.359,9.359,9.359h84.234c5.176,0,9.359-4.184,9.359-9.359V46.797h46.797v18.719v18.719H330.161
		V65.516V46.797L330.161,46.797z"/>
</g>
</svg>
