<?xml version="1.0" encoding="utf-8"?>
<!-- Generator: Adobe Illustrator 16.0.0, SVG Export Plug-In . SVG Version: 6.00 Build 0)  -->
<!DOCTYPE svg PUBLIC "-//W3C//DTD SVG 1.1//EN" "http://www.w3.org/Graphics/SVG/1.1/DTD/svg11.dtd">
<svg version="1.1" id="Capa_1" xmlns="http://www.w3.org/2000/svg" xmlns:xlink="http://www.w3.org/1999/xlink" x="0px" y="0px"
	 width="960px" height="560px" viewBox="0 0 960 560" enable-background="new 0 0 960 560" xml:space="preserve">
<g>
	<path fill="#FFFFFF" d="M740.692,343.323l-27.38-27.39c-10.841-10.831-29.734-10.831-40.575,0L524.823,463.848l-20.384,74.76
		l-4.988,4.987c-3.729,3.729-3.738,9.745-0.058,13.503l-0.048,0.192l0.183-0.048c1.864,1.825,4.286,2.768,6.718,2.768
		c2.46,0,4.921-0.942,6.795-2.816l4.997-4.997l74.75-20.384l147.904-147.914C751.879,372.702,751.879,354.51,740.692,343.323z
		 M547.014,468.835l98.439-98.439l40.777,40.777l-98.439,98.439L547.014,468.835z M538.345,487.345l30.946,30.946L526.735,529.9
		L538.345,487.345z M727.104,370.3l-27.284,27.284l-40.777-40.777l27.284-27.284c3.575-3.585,9.813-3.585,13.388,0l27.39,27.39
		C730.794,360.593,730.794,366.609,727.104,370.3z"/>
	<path fill="#FFFFFF" d="M278.181,345.976h249.871c5.306,0,9.611-4.296,9.611-9.61s-4.306-9.61-9.611-9.61H278.181
		c-5.305,0-9.61,4.296-9.61,9.61S272.876,345.976,278.181,345.976z"/>
	<path fill="#FFFFFF" d="M489.61,384.417h-211.43c-5.305,0-9.61,4.296-9.61,9.61c0,5.315,4.306,9.611,9.61,9.611h211.43
		c5.305,0,9.61-4.296,9.61-9.611C499.221,388.713,494.925,384.417,489.61,384.417z"/>
	<path fill="#FFFFFF" d="M278.181,172.988h124.936c5.305,0,9.61-4.296,9.61-9.61s-4.306-9.61-9.61-9.61H278.181
		c-5.305,0-9.61,4.296-9.61,9.61S272.876,172.988,278.181,172.988z"/>
	<path fill="#FFFFFF" d="M403.117,461.301c5.305,0,9.61-4.296,9.61-9.61s-4.306-9.61-9.61-9.61H278.181
		c-5.305,0-9.61,4.296-9.61,9.61s4.306,9.61,9.61,9.61H403.117z"/>
	<path fill="#FFFFFF" d="M556.884,211.43H278.181c-5.305,0-9.61,4.296-9.61,9.61s4.306,9.61,9.61,9.61h278.703
		c5.305,0,9.61-4.296,9.61-9.61S562.198,211.43,556.884,211.43z"/>
	<path fill="#FFFFFF" d="M278.181,288.313h134.546c5.305,0,9.61-4.295,9.61-9.61c0-5.314-4.305-9.61-9.61-9.61H278.181
		c-5.305,0-9.61,4.296-9.61,9.61C268.57,284.018,272.876,288.313,278.181,288.313z"/>
	<path fill="#FFFFFF" d="M566.494,278.703c0-5.314-4.306-9.61-9.61-9.61H489.61c-5.305,0-9.61,4.296-9.61,9.61
		c0,5.315,4.306,9.61,9.61,9.61h67.273C562.198,288.313,566.494,284.018,566.494,278.703z"/>
	<path fill="#FFFFFF" d="M457.992,285.517c1.729-1.816,2.787-4.325,2.787-6.824s-1.058-4.998-2.787-6.823
		c-3.652-3.556-10.091-3.556-13.646,0c-1.73,1.826-2.787,4.325-2.787,6.823c0,2.604,1.057,5.007,2.787,6.824
		c1.825,1.739,4.324,2.786,6.823,2.786C453.667,288.303,456.176,287.256,457.992,285.517z"/>
	<path fill="#FFFFFF" d="M451.169,538.185h-221.04V76.883h67.273v19.221c0,5.314,4.305,9.61,9.61,9.61h221.04
		c5.306,0,9.611-4.296,9.611-9.61V76.883h67.272v211.429c0,5.314,4.306,9.611,9.61,9.611s9.61-4.297,9.61-9.611V67.273
		c0-5.314-4.306-9.61-9.61-9.61h-76.883V38.442c0-5.315-4.306-9.611-9.611-9.611H470.39V9.61c0-5.314-4.306-9.61-9.61-9.61h-86.494
		c-5.305,0-9.61,4.296-9.61,9.61v19.221h-57.663c-5.305,0-9.61,4.296-9.61,9.611v19.221h-76.883c-5.305,0-9.611,4.296-9.611,9.61
		v480.522c0,5.314,4.306,9.61,9.611,9.61h230.65c5.305,0,9.61-4.296,9.61-9.61S456.483,538.185,451.169,538.185z M383.896,19.221
		h67.273v19.221v19.221h-67.273V38.442V19.221z M316.623,48.052h48.052v19.221c0,5.314,4.306,9.61,9.61,9.61h86.494
		c5.305,0,9.61-4.296,9.61-9.61V48.052h48.052v19.221v19.221H316.623V67.273V48.052L316.623,48.052z"/>
</g>
</svg>
